<svg xmlns="http://www.w3.org/2000/svg" viewBox="0 0 512 512" width="30" height="30">
<path d="M256 0C156.7 0 76 80.7 76 180c0 33.5 9.3 66.3 26.9 94.7l142.9 230.3c2.7 4.4 7.6 7.1 12.7 7.1 0 0 0.1 0 0.1 0 5.2 0 10.1-2.8 12.8-7.3L410.6 272.2C427.2 244.4 436 212.5 436 180 436 80.7 355.3 0 256 0zM384.9 256.8L258.3 468.2l-129.9-209.3C113.7 235.2 105.8 208 105.8 180c0-82.7 67.5-150.2 150.2-150.2S406.1 97.3 406.1 180C406.1 207.1 398.7 233.7 384.9 256.8z"/><path d="M256 90c-49.6 0-90 40.4-90 90 0 49.3 39.7 90 90 90 50.9 0 90-41.2 90-90C346 130.4 305.6 90 256 90zM256 240.2c-33.3 0-60.2-27-60.2-60.2 0-33.1 27.1-60.2 60.2-60.2s60.1 27.1 60.1 60.2C316.1 212.7 289.8 240.2 256 240.2z"/></svg>