<svg xmlns="http://www.w3.org/2000/svg" viewBox="0 0 330.4 330.4" width="30" height="30">
<style>.a{fill:#010002;}</style><path d="M281 151.6h49.4v27.2h-49.4V151.6zM151.6 280.5h27.2v49.2h-27.2V280.5zM0 151.6h49.4v27.2H0V151.6zM151.6 0.7h27.2v49.2h-27.2V0.7zM224.6 52.4L243.4 20.1l9.4 5.5 -18.8 32.3L224.6 52.4zM278.5 106.1l-5.4-9.4 32.4-18.7 5.4 9.4L278.5 106.1zM310.9 243.1l-5.4 9.4 -32.4-18.7 5.4-9.4L310.9 243.1zM252.8 304.8l-9.4 5.5 -18.8-32.3 9.4-5.5L252.8 304.8zM87 310.3l-9.4-5.5 18.8-32.3 9.4 5.5L87 310.3zM25 252.5l-5.4-9.4 32.4-18.7 5.4 9.4L25 252.5zM19.6 87.4l5.4-9.4 32.4 18.7 -5.4 9.4L19.6 87.4zM77.6 25.6l9.4-5.5 18.8 32.3 -9.4 5.5L77.6 25.6z" class="a"/><path d="M262.4 165.2c0-4.5-3.7-8.2-8.2-8.2H180.6c-1.6-3-4.1-5.5-7.2-7.1V99.7c0-4.5-3.7-8.2-8.2-8.2s-8.2 3.7-8.2 8.2v50.3c-5.5 2.9-9.3 8.6-9.3 15.3 0 9.6 7.8 17.4 17.5 17.4 6.7 0 12.4-3.8 15.3-9.2h73.7C258.7 173.4 262.4 169.7 262.4 165.2z" class="a"/></svg>