<svg xmlns="http://www.w3.org/2000/svg" viewBox="0 0 362.7 362.7"><path d="M298.7 42.7c-8.8 0-16.9 2.7-23.7 7.2 -5.8-16.6-21.7-28.5-40.3-28.5 -8.8 0-16.9 2.7-23.7 7.2C205.1 11.9 189.2 0 170.7 0c-18.6 0-34.4 11.9-40.3 28.5 -6.8-4.5-15-7.2-23.7-7.2C83.1 21.3 64 40.5 64 64v48.9l-20.8 20.8c-14.1 14.1-21.9 32.9-21.9 52.8v32.3c0 19.9 7.8 38.7 21.9 52.8l42.7 42.7c31.2 31.2 72.7 48.4 116.8 48.4 76.5 0 138.7-62.2 138.7-138.7V85.3C341.3 61.8 322.2 42.7 298.7 42.7zM320 224c0 64.7-52.7 117.3-117.4 117.3 -38.4 0-74.5-15-101.7-42.1l-42.7-42.7c-10.1-10.1-15.6-23.5-15.6-37.7v-32.3c0-14.3 5.5-27.6 15.6-37.7L64 143.1V160c0 5.9 4.8 10.7 10.7 10.7S85.3 165.9 85.3 160v-42.6c0 0 0 0 0 0V64c0-11.8 9.6-21.3 21.3-21.3S128 52.2 128 64v32c0 5.9 4.8 10.7 10.7 10.7s10.7-4.8 10.7-10.7V42.7c0-11.8 9.6-21.3 21.3-21.3S192 30.9 192 42.7V96c0 5.9 4.8 10.7 10.7 10.7s10.7-4.8 10.7-10.7V64c0-11.8 9.6-21.3 21.3-21.3S256 52.2 256 64v32c0 5.9 4.8 10.7 10.7 10.7 5.9 0 10.7-4.8 10.7-10.7V85.3c0-11.8 9.6-21.3 21.3-21.3S320 73.6 320 85.3V224z"/></svg>