<svg xmlns="http://www.w3.org/2000/svg" viewBox="0 0 33.9 33.9" width="30" height="30"><path d="M24.2 33.9c-1.2 0-2.7-0.3-4.4-0.9 -3.6-1.4-7.5-4-11-7.6C5.2 21.9 2.5 18 1.2 14.4c-1.2-3.3-1.2-6 0-7.2 0.2-0.2 0.4-0.4 0.5-0.6 1.1-1.2 2.4-2.5 4.1-2.4 1.2 0 2.3 0.8 3.4 2.2 3.4 4.2 1.9 5.7 0.1 7.5l-0.3 0.3c-0.3 0.3-0.8 1.6 4.3 6.7 1.7 1.7 3.1 2.9 4.2 3.6 0.7 0.5 2 1.2 2.5 0.6l0.3-0.3c1.7-1.8 3.3-3.3 7.5 0.1 1.4 1.1 2.1 2.3 2.2 3.4 0.1 1.7-1.3 3-2.5 4.1 -0.2 0.2-0.4 0.4-0.6 0.5C26.4 33.6 25.4 33.9 24.2 33.9zM5.7 5.1c-1.2 0-2.3 1.1-3.2 2.1C2.3 7.5 2.1 7.7 1.9 7.9c-0.9 0.9-0.8 3.3 0.2 6.1 1.3 3.5 3.9 7.3 7.3 10.7 3.4 3.4 7.2 6 10.7 7.3 2.8 1.1 5.2 1.2 6.1 0.2 0.2-0.2 0.4-0.4 0.6-0.6 1-1 2.2-2.1 2.1-3.3 0-0.8-0.6-1.7-1.8-2.7 -3.5-2.8-4.5-1.8-6.1-0.2l-0.3 0.3c-0.8 0.8-2 0.6-3.8-0.5 -1.2-0.8-2.7-2-4.4-3.8 -4.2-4.2-5.6-6.8-4.3-8.1l0.3-0.3c1.7-1.6 2.7-2.6-0.2-6.1C7.5 5.8 6.6 5.2 5.8 5.1 5.7 5.1 5.7 5.1 5.7 5.1z"/><path d="M27.5 25.8c-0.2 0-0.3-0.1-0.4-0.2 -0.2-0.2-0.1-0.5 0.1-0.7 1-0.8 2-1.7 2.7-2.7 1.8-2.3 2.7-5.1 2.7-8C32.6 6.9 26.7 1 19.4 1c-2.2 0-4.4 0.6-6.3 1.6 -0.2 0.1-0.5 0-0.7-0.2 -0.1-0.2 0-0.5 0.2-0.7C14.7 0.6 17 0 19.4 0c7.8 0 14.2 6.4 14.2 14.2 0 3.1-1 6.1-2.9 8.6 -0.8 1.1-1.8 2.1-2.9 2.9C27.7 25.8 27.6 25.8 27.5 25.8z"/><path d="M16.6 8.8c0.6-0.2 1.2-0.3 1.8-0.3 1.6 0 2.6 0.8 2.6 2.2 0 0.8-0.4 1.3-1.3 1.9l-1.8 1.2c-0.6 0.4-0.8 1-0.8 1.6h3.6c0.1 0 0.1 0 0.1 0.1v0.9c0 0.1 0 0.1-0.1 0.1h-4.8c-0.1 0-0.1 0-0.1-0.1v-0.5c0-1.4 0.4-2.4 1.5-3l1.8-1.2c0.4-0.3 0.7-0.6 0.7-0.9 0-0.6-0.5-1-1.3-1 -0.5 0-1 0.1-1.4 0.2l-0.7 0.2c-0.1 0-0.1 0-0.1-0.1l-0.3-0.8c0-0.1 0-0.1 0.1-0.1L16.6 8.8z"/><path d="M27.9 14.3c0 0.1 0 0.1-0.1 0.1h-0.7v1.9c0 0.1 0 0.1-0.1 0.1h-1c-0.1 0-0.1 0-0.1-0.1v-1.9h-3.8c-0.1 0-0.1 0-0.1-0.1v-0.9c0-0.1 0-0.1 0.1-0.2 0.3-0.3 0.5-0.6 0.8-1l2.1-2.7c0.2-0.3 0.4-0.6 0.6-0.9 0-0.1 0.1-0.1 0.2-0.1h1.4c0.1 0 0.1 0 0.1 0.1v4.6h0.7c0.1 0 0.1 0 0.1 0.1V14.3zM25.8 11.4c0-0.4 0-0.7 0.1-1.1 0-0.1-0.1-0.2-0.2 0l-1.8 2.3c-0.1 0.2-0.4 0.5-0.5 0.6 -0.1 0.1 0 0.2 0.1 0.2h2.4V11.4z"/></svg>