<svg xmlns="http://www.w3.org/2000/svg" viewBox="0 0 495.7 495.7" width="70" height="70"><style>.a{fill:#ed352b;}</style><path d="M192.1 97.7c0 17.2 6 33.2 15.5 45.1l0 17.3c-0.4 0.7-2.4 2-4.9 2.7l-29.8 7.7c0 0-0.1 0-0.1 0 -19 5.3-28.9 23.9-28.9 39.5v8.6c0 9.5 8.3 17.1 18.4 17.1l171.1 0c10.2 0 18.4-7.7 18.4-17.1v-8.6c0-15.6-9.9-34.2-28.9-39.5 0 0-0.1 0-0.1 0l-29.8-7.7c-2.5-0.7-4.5-2-4.9-2.7l0-16.2c0 0 0.1-0.1 0.1-0.1 10.2-12.2 15.8-28 15.8-44.5V87.1c10.2-33.2 3-62-0.7-70.3 0 0 0-0.1 0-0.1 -0.1-0.2-0.2-0.3-0.2-0.5 0-0.1-0.1-0.2-0.1-0.3 -0.1-0.1-0.2-0.3-0.2-0.4 -0.1-0.1-0.1-0.2-0.2-0.3 -0.1-0.1-0.1-0.2-0.2-0.3 -0.1-0.1-0.2-0.2-0.3-0.4 -0.1-0.1-0.1-0.1-0.2-0.2 -0.1-0.1-0.2-0.3-0.4-0.4 0 0-0.1-0.1-0.2-0.1 -0.1-0.1-0.3-0.2-0.4-0.4 -0.1 0-0.1-0.1-0.2-0.1 -0.2-0.1-0.3-0.2-0.5-0.3 -0.1 0-0.2-0.1-0.2-0.1 -0.1-0.1-0.3-0.2-0.4-0.2 -0.1-0.1-0.2-0.1-0.3-0.1 -0.1-0.1-0.3-0.1-0.4-0.2 -0.1 0-0.2-0.1-0.4-0.1 -0.1 0-0.2-0.1-0.4-0.1 -0.1 0-0.3-0.1-0.4-0.1 -0.1 0-0.3-0.1-0.4-0.1 -0.1 0-0.2 0-0.3 0 -0.1 0-0.3 0-0.4 0 -0.1 0-0.2 0-0.3 0 -0.2 0-0.3 0-0.5 0 -0.1 0-0.2 0-0.3 0 -0.2 0-0.4 0-0.6 0.1 0 0-0.1 0-0.1 0 -7.7 1.1-17.1-1.1-27-3.5 -17.6-4.2-37.4-9-54.8 3.6 -16.8 1.4-28.7 15.6-28.7 34.7 0 13.9 6.4 38.7 7.9 44.2V97.7zM288 85.9c0 0 0 0 0 0.1v13.3c0 14.1-5.3 27-13.6 35.9 0 0 0 0-0.1 0.1 -7.1 7.7-16.4 12.4-26.4 12.4 -21.2 0-39.8-23.3-39.8-49.9v-2.7c0-7.9 3.4-19.6 5.9-26.9 36.2 0.8 63.5 9.5 74 13.4V85.9zM272.1 160.1c0 7.2 4.7 12.3 10.3 15.4 -8.9 7.7-21.3 12.3-34.5 12.3 -13.2 0-25.6-4.6-34.5-12.3 5.6-3.1 10.3-8.2 10.3-15.4l0-3.4c7.4 4.4 15.7 6.8 24.3 6.8 8.5 0 16.7-2.2 24.1-6.4L272.1 160.1zM335.8 210.1v8.6c0 0.2-0.8 1.1-2.4 1.1l-171.1 0c-1.6 0-2.4-0.9-2.4-1.1v-8.6c0-9.6 5.9-20.9 17.1-24.1l19.3-5c11.9 14.2 31.2 22.9 51.6 22.9 20.4 0 39.7-8.7 51.6-22.9l19.2 5C330 189.2 335.8 200.5 335.8 210.1zM215.8 28c0 0 0.1 0 0.1 0 0.2 0 0.5 0 0.7 0 0.1 0 0.2 0 0.3 0 0.2 0 0.3 0 0.5-0.1 0.1 0 0.2-0.1 0.3-0.1 0.1 0 0.3-0.1 0.4-0.1 0.1 0 0.2-0.1 0.3-0.1 0.1 0 0.3-0.1 0.4-0.1 0.1-0.1 0.2-0.1 0.4-0.2 0.1-0.1 0.2-0.1 0.3-0.2 0.1-0.1 0.3-0.2 0.4-0.2 0.1-0.1 0.2-0.1 0.3-0.2 0.2-0.1 0.3-0.2 0.5-0.4 0 0 0.1-0.1 0.1-0.1 11.8-9.6 27-6 43.2-2.1 8.7 2.1 17.6 4.2 26.3 4.2 2.1 7.7 4.1 21.3 1.9 37.6 -13-4.7-43.5-14-83.9-14 0 0 0 0-0.1 0 -0.2 0-0.3 0-0.5 0 -0.1 0-0.2 0-0.3 0 -0.1 0-0.3 0-0.4 0.1 -0.1 0-0.3 0-0.4 0.1 -0.1 0-0.2 0-0.2 0.1 -0.2 0-0.4 0.1-0.5 0.1 0 0-0.1 0-0.1 0 -0.2 0.1-0.4 0.2-0.6 0.2 0 0 0 0 0 0 -0.2 0.1-0.5 0.2-0.7 0.3 0 0-0.1 0-0.1 0.1 -0.2 0.1-0.4 0.2-0.5 0.3 -0.1 0.1-0.2 0.2-0.3 0.2 -0.1 0.1-0.2 0.1-0.3 0.2 -0.1 0.1-0.3 0.3-0.4 0.4 0 0-0.1 0.1-0.1 0.1 -0.1 0.1-0.3 0.3-0.4 0.4 0 0.1-0.1 0.1-0.1 0.2 -0.1 0.1-0.2 0.2-0.3 0.4 -0.1 0.1-0.1 0.2-0.2 0.3 -0.1 0.1-0.1 0.2-0.2 0.3 -0.1 0.1-0.2 0.3-0.2 0.4 0 0.1-0.1 0.2-0.1 0.2 0 0.1-0.1 0.2-0.1 0.3 -0.6-3.8-0.9-7.2-0.9-10C200.2 38.2 204.3 28 215.8 28z" class="a"/><path d="M179.1 426.3c0 0-0.1 0-0.1 0l-29.8-7.7c-2.5-0.7-4.5-2-4.9-2.7l0-16.2c0 0 0.1-0.1 0.1-0.1 10.2-12.2 15.8-28 15.8-44.5v-12.1c10.2-33.2 3-62-0.7-70.3 0 0 0 0 0-0.1 -0.1-0.2-0.2-0.3-0.2-0.5 0-0.1-0.1-0.1-0.1-0.2 -0.1-0.1-0.2-0.3-0.3-0.4 -0.1-0.1-0.1-0.2-0.2-0.2 -0.1-0.1-0.2-0.2-0.3-0.4 -0.1-0.1-0.1-0.2-0.2-0.3 -0.1-0.1-0.2-0.2-0.3-0.3 -0.1-0.1-0.2-0.2-0.3-0.3 -0.1-0.1-0.2-0.2-0.3-0.3 -0.1-0.1-0.2-0.2-0.3-0.2 -0.1-0.1-0.2-0.2-0.4-0.3 -0.1-0.1-0.2-0.1-0.3-0.2 -0.1-0.1-0.3-0.2-0.5-0.3 -0.1 0-0.1-0.1-0.2-0.1 -0.2-0.1-0.4-0.2-0.5-0.2 -0.1 0-0.1 0-0.2-0.1 -0.2-0.1-0.4-0.1-0.6-0.2 -0.1 0-0.1 0-0.2-0.1 -0.2 0-0.4-0.1-0.5-0.1 -0.1 0-0.2 0-0.2 0 -0.2 0-0.3 0-0.5-0.1 -0.1 0-0.2 0-0.3 0 -0.1 0-0.2 0-0.4 0 -0.2 0-0.3 0-0.5 0 -0.1 0-0.2 0-0.3 0 -0.2 0-0.4 0-0.5 0.1 0 0-0.1 0-0.1 0 -7.7 1.1-17.1-1.1-27-3.5 -17.6-4.2-37.4-9-54.8 3.6 -16.8 1.4-28.7 15.6-28.7 34.7 0 13.9 6.4 38.7 7.9 44.2v6.7c0 17.2 6 33.2 15.5 45.1l0 17.3c-0.4 0.7-2.4 2-4.9 2.7l-29.8 7.7c0 0-0.1 0-0.1 0C9.9 431.7 0 450.3 0 465.9v8.6c0 9.5 8.3 17.1 18.4 17.1l171.1 0c10.2 0 18.4-7.7 18.4-17.1v-8.6C208 450.2 198 431.6 179.1 426.3zM64.3 350.8c0-7.9 3.4-19.6 5.9-26.9 36.2 0.8 63.5 9.5 74 13.4v4.4c0 0 0 0.1 0 0.1v13.3c0 14.1-5.3 27-13.6 35.9 0 0 0 0-0.1 0.1 -7.1 7.6-16.4 12.4-26.4 12.4 -21.2 0-39.8-23.3-39.8-49.9V350.8zM79.8 416l0-3.4c7.4 4.4 15.7 6.8 24.3 6.8 8.5 0 16.7-2.2 24.1-6.4l0 2.9c0 7.2 4.7 12.3 10.3 15.4 -8.9 7.7-21.3 12.3-34.5 12.3 -13.2 0-25.6-4.6-34.5-12.3C75.1 428.2 79.8 423.1 79.8 416zM71.9 283.8c0 0 0.1 0 0.1 0 0.2 0 0.5 0 0.7 0 0.1 0 0.2 0 0.3 0 0.2 0 0.3 0 0.5-0.1 0.1 0 0.2-0.1 0.3-0.1 0.1 0 0.3-0.1 0.4-0.1 0.1 0 0.2-0.1 0.3-0.1 0.1 0 0.3-0.1 0.4-0.1 0.1-0.1 0.2-0.1 0.4-0.2 0.1-0.1 0.2-0.1 0.3-0.2 0.1-0.1 0.3-0.2 0.4-0.2 0.1-0.1 0.2-0.1 0.3-0.2 0.2-0.1 0.3-0.2 0.5-0.4 0 0 0.1-0.1 0.1-0.1 11.8-9.6 27-6 43.2-2.1 8.7 2.1 17.6 4.2 26.3 4.2 2.1 7.7 4.1 21.3 1.9 37.6 -13-4.7-43.5-14-83.9-14 0 0 0 0-0.1 0 -0.2 0-0.3 0-0.5 0 -0.1 0-0.2 0-0.3 0 -0.1 0-0.3 0-0.4 0.1 -0.1 0-0.3 0-0.4 0.1 -0.1 0-0.1 0-0.2 0.1 -0.2 0-0.4 0.1-0.6 0.1 0 0 0 0-0.1 0 -0.5 0.2-0.9 0.4-1.4 0.6 0 0 0 0-0.1 0 -0.2 0.1-0.4 0.2-0.6 0.4 -0.1 0.1-0.2 0.1-0.3 0.2 -0.1 0.1-0.2 0.2-0.3 0.2 -0.1 0.1-0.3 0.2-0.4 0.4 -0.1 0-0.1 0.1-0.2 0.1 -0.1 0.1-0.2 0.3-0.4 0.4 0 0.1-0.1 0.1-0.1 0.2 -0.1 0.1-0.2 0.2-0.3 0.4 -0.1 0.1-0.1 0.2-0.2 0.3 -0.1 0.1-0.1 0.2-0.2 0.3 -0.1 0.1-0.2 0.3-0.2 0.4 0 0.1-0.1 0.2-0.1 0.2 0 0.1-0.1 0.2-0.1 0.3 -0.6-3.8-0.9-7.2-0.9-10C56.3 293.9 60.4 283.8 71.9 283.8zM192 474.5c0 0.2-0.8 1.1-2.4 1.1L18.4 475.7c-1.6 0-2.4-0.9-2.4-1.1v-8.6c0-9.6 5.9-20.9 17.1-24.1l19.3-5c11.9 14.2 31.2 22.9 51.6 22.9 20.4 0 39.7-8.7 51.6-22.9l19.2 5c11.2 3.2 17.1 14.5 17.1 24.1V474.5z" class="a"/><path d="M466.8 426.3c0 0-0.1 0-0.1 0l-29.8-7.7c-2.5-0.7-4.5-2-4.9-2.7l0-16.2c0 0 0.1-0.1 0.1-0.1 10.2-12.2 15.8-28 15.8-44.5v-12.1c10.2-33.2 3-62-0.7-70.3 0 0 0 0 0-0.1 -0.1-0.2-0.2-0.3-0.2-0.5 0-0.1-0.1-0.2-0.1-0.2 -0.1-0.1-0.2-0.3-0.3-0.4 -0.1-0.1-0.1-0.2-0.2-0.3 -0.1-0.1-0.2-0.2-0.3-0.3 -0.1-0.1-0.2-0.2-0.2-0.3 -0.1-0.1-0.2-0.2-0.2-0.2 -0.1-0.1-0.2-0.2-0.3-0.3 -0.1-0.1-0.2-0.1-0.2-0.2 -0.1-0.1-0.2-0.2-0.3-0.3 -0.1-0.1-0.2-0.1-0.3-0.2 -0.1-0.1-0.2-0.2-0.3-0.2 -0.1-0.1-0.3-0.1-0.4-0.2 -0.1 0-0.2-0.1-0.3-0.2 -0.2-0.1-0.3-0.1-0.5-0.2 -0.1 0-0.1-0.1-0.2-0.1 -0.2-0.1-0.3-0.1-0.5-0.2 -0.1 0-0.1 0-0.2-0.1 -0.2 0-0.3-0.1-0.5-0.1 -0.1 0-0.2 0-0.3-0.1 -0.1 0-0.3 0-0.4-0.1 -0.1 0-0.2 0-0.4 0 -0.1 0-0.2 0-0.4 0 -0.2 0-0.3 0-0.5 0 -0.1 0-0.2 0-0.3 0 -0.2 0-0.4 0-0.5 0.1 0 0-0.1 0-0.1 0 -7.7 1.1-17.1-1.1-27-3.5 -17.6-4.2-37.4-9-54.8 3.6 -16.8 1.4-28.7 15.6-28.7 34.7 0 13.9 6.4 38.7 7.9 44.2v6.7c0 17.2 6 33.2 15.5 45.1l0 17.3c-0.4 0.7-2.4 2-4.9 2.7l-29.8 7.7c0 0-0.1 0-0.1 0 -19 5.3-28.9 23.9-28.9 39.5v8.6c0 9.5 8.3 17.1 18.4 17.1l171.1 0c10.2 0 18.4-7.7 18.4-17.1v-8.6C495.7 450.2 485.8 431.6 466.8 426.3zM352 350.8c0-7.9 3.4-19.6 5.9-26.9 36.2 0.8 63.5 9.5 74 13.4v4.4c0 0 0 0 0 0.1v13.3c0 14.1-5.3 27-13.6 35.9 0 0 0 0-0.1 0.1 -7.1 7.7-16.4 12.4-26.4 12.4 -21.2 0-39.8-23.3-39.8-49.9V350.8zM367.5 416l0-3.4c7.4 4.4 15.7 6.8 24.3 6.8 8.5 0 16.7-2.2 24.1-6.4l0 2.9c0 7.2 4.7 12.3 10.3 15.4 -8.9 7.7-21.3 12.3-34.5 12.3 -13.2 0-25.6-4.6-34.5-12.3C362.9 428.2 367.5 423.1 367.5 416zM359.7 283.8c0 0 0.1 0 0.1 0 0.2 0 0.5 0 0.7 0 0.1 0 0.2 0 0.3 0 0.2 0 0.3 0 0.5-0.1 0.1 0 0.2-0.1 0.3-0.1 0.1 0 0.3-0.1 0.4-0.1 0.1 0 0.2-0.1 0.3-0.1 0.1 0 0.3-0.1 0.4-0.1 0.1-0.1 0.2-0.1 0.4-0.2 0.1-0.1 0.2-0.1 0.3-0.2 0.1-0.1 0.3-0.2 0.4-0.2 0.1-0.1 0.2-0.1 0.3-0.2 0.2-0.1 0.3-0.2 0.5-0.4 0 0 0.1-0.1 0.1-0.1 11.8-9.6 27-6 43.2-2.1 8.7 2.1 17.6 4.2 26.3 4.2 2.1 7.7 4.1 21.3 1.9 37.6 -13-4.7-43.5-14-83.9-14 0 0 0 0-0.1 0 -0.2 0-0.3 0-0.5 0 -0.1 0-0.2 0-0.3 0 -0.1 0-0.2 0-0.4 0.1 -0.1 0-0.3 0-0.4 0.1 -0.1 0-0.1 0-0.2 0.1 -0.2 0-0.4 0.1-0.6 0.2 0 0 0 0 0 0 -0.5 0.2-0.9 0.4-1.4 0.6 0 0 0 0 0 0 -0.2 0.1-0.4 0.2-0.6 0.4 -0.1 0.1-0.2 0.1-0.3 0.2 -0.1 0.1-0.2 0.2-0.3 0.2 -0.1 0.1-0.3 0.2-0.4 0.4 0 0-0.1 0.1-0.2 0.1 -0.1 0.1-0.3 0.3-0.4 0.4 0 0.1-0.1 0.1-0.1 0.2 -0.1 0.1-0.2 0.2-0.3 0.4 -0.1 0.1-0.1 0.2-0.2 0.3 -0.1 0.1-0.1 0.2-0.2 0.3 -0.1 0.1-0.2 0.3-0.2 0.4 0 0.1-0.1 0.2-0.1 0.2 0 0.1-0.1 0.2-0.1 0.3 -0.6-3.8-0.9-7.2-0.9-10C344.1 293.9 348.2 283.8 359.7 283.8zM479.7 474.5c0 0.2-0.8 1.1-2.4 1.1l-171.1 0c-1.6 0-2.4-0.9-2.4-1.1v-8.6c0-9.6 5.9-20.9 17.1-24.1l19.3-5c11.9 14.2 31.2 22.9 51.6 22.9 20.4 0 39.7-8.7 51.6-22.9l19.2 5c11.2 3.2 17.1 14.5 17.1 24.1V474.5z" class="a"/><path d="M323.6 113.5c42.7 26.5 68.2 72.2 68.2 122.4 0 4.4 3.6 8 8 8s8-3.6 8-8c0-27.7-7.2-55-20.8-78.9 -13.2-23.2-32.2-42.9-54.9-57 -3.8-2.3-8.7-1.2-11 2.6C318.7 106.3 319.9 111.2 323.6 113.5z" class="a"/><path d="M96 243.9c4.4 0 8-3.6 8-8 0-50.2 25.5-95.9 68.2-122.4 3.8-2.3 4.9-7.3 2.6-11 -2.3-3.8-7.3-4.9-11-2.6 -22.7 14.1-41.7 33.8-54.9 57 -13.6 23.9-20.8 51.2-20.8 79C88 240.3 91.6 243.9 96 243.9z" class="a"/><path d="M319.1 370.3c-1.9-4-6.6-5.7-10.6-3.9 -19 8.8-39.4 13.3-60.6 13.3 -21.2 0-41.6-4.5-60.6-13.3 -4-1.9-8.8-0.1-10.6 3.9 -1.9 4-0.1 8.8 3.9 10.6 21.2 9.8 43.8 14.8 67.3 14.8 23.5 0 46.2-5 67.3-14.8C319.2 379.1 321 374.3 319.1 370.3z" class="a"/></svg>