<svg xmlns="http://www.w3.org/2000/svg" width="70" height="70" viewBox="0 0 299.1 299.1"><style>.a{fill:#ed352b;}</style><path d="M8.6 98.6l52.2 52.6 -14.6 62.5c-1.3 4.4-1 8 1.1 10.9 1.7 2.4 4.5 3.8 7.5 3.8 2.4 0 4.9-0.9 7.5-2.6l60.6-31.4 15.8 8.2c1.2-5.2 2.8-10.2 5-15l-20.8-10.7 -59.2 30.7 14.3-61.1L25.9 93.9l65.5-8.3 31.4-62.4 31.4 62.4 65.5 8.3 -52 52.4 2.1 9c6.7-4.9 14.2-8.7 22.2-11.3l45-45.3c6.3-4.9 5.5-10 4.8-12.1 -0.7-2-3.1-6.7-11.1-6.9l-66.4-8.4L132.9 8.3C130.2 0.8 125 0 122.9 0c-2.1 0-7.3 0.8-10 8.3L81.3 71.2l-66.4 8.4C6.9 79.8 4.5 84.5 3.8 86.5 3.1 88.6 2.3 93.7 8.6 98.6z" class="a"/><path d="M295.7 225.2c0-27.9-15.5-52.2-38.4-64.8 -10.5-5.8-22.6-9.1-35.5-9.1 -12.6 0-24.4 3.2-34.8 8.7 -5 2.7-9.6 5.9-13.8 9.6 -7.5 6.6-13.7 14.7-18.1 23.8 -2.3 4.7-4 9.7-5.2 14.9 -1.3 5.4-2 11.1-2 16.9 0 12.9 3.3 24.9 9.1 35.5 12.6 22.9 36.9 38.4 64.8 38.4 4.2 0 8.2-0.4 12.2-1.1 31-5.2 55.4-29.6 60.6-60.6C295.3 233.4 295.7 229.4 295.7 225.2zM221.9 283.5c-32.1 0-58.3-26.1-58.3-58.3 0-3.2 0.3-6.3 0.8-9.4 0.9-5.3 2.5-10.4 4.7-15.2 2.2-4.8 5-9.2 8.4-13.1 3.8-4.5 8.3-8.4 13.3-11.5 9-5.7 19.6-9 31.1-9 32.1 0 58.3 26.1 58.3 58.3 0 3.1-0.3 6.1-0.8 9 -3.9 24.9-23.6 44.6-48.5 48.5C227.9 283.2 224.9 283.5 221.9 283.5z" class="a"/><path d="M225.1 209.9c-3.5 0-6.5 0.5-9 1.4 -1.5 0.6-3.5 1.7-6.1 3.4l3.1-18.9h35.4v-14.4h-47.6l-3 24 -2.8 22.1 -0.2 1.7 15.3 0.7c1.4-2.6 3.4-4.4 6-5.3 1.5-0.5 3.3-0.8 5.4-0.8 4.4 0 7.6 1.5 9.7 4.6 2.1 3 3.1 6.8 3.1 11.2 0 4.5-1.1 8.2-3.3 11.2 -2.2 3-5.4 4.4-9.6 4.4 -3.7 0-6.4-1-8.3-3 -1.9-2-3.2-4.9-3.9-8.6h-17c0.6 8.1 3.5 14.4 8.8 18.8 5.3 4.4 12.1 6.6 20.3 6.6 10.2 0 17.9-3.1 23-9.4 5.1-6.3 7.7-13.4 7.7-21.4 0-9.2-2.7-16.2-8-21C238.4 212.4 232.2 209.9 225.1 209.9z" class="a"/></svg>