<svg xmlns="http://www.w3.org/2000/svg" viewBox="0 0 559.4 559.4" width="220" height="220"><path d="M324.5 502.5c0-7.8-1.4-15.1-4.3-22 -2.9-6.9-6.9-13-12.2-18.1 -5.3-5.1-11.4-9.2-18.4-12.2 -6.9-3.1-14.3-4.6-22-4.6s-15.1 1.5-22 4.6c-6.9 3.1-13 7.1-18.1 12.2 -5.1 5.1-9.1 11.1-11.9 18.1 -2.9 6.9-4.3 14.3-4.3 22 0 7.8 1.4 15.1 4.3 22 2.9 6.9 6.8 13 11.9 18.1 5.1 5.1 11.1 9.2 18.1 12.2 6.9 3.1 14.3 4.6 22 4.6s15.1-1.5 22-4.6c6.9-3.1 13.1-7.1 18.4-12.2 5.3-5.1 9.4-11.1 12.2-18.1C323 517.6 324.5 510.2 324.5 502.5zM271.8 420.5h-4.9c-13.1-1.6-23.8-7.5-32.1-17.7 -8.4-10.2-11.9-21.8-10.7-34.9 2.4-22.4 8.1-44.2 16.8-65.2 8.8-21 20.1-39.7 34-56 4.5-5.7 9.4-10.9 14.7-15.6 5.3-4.7 10.6-9.3 15.9-13.8 13.5-11.4 23.8-21.6 30.9-30.6s10.7-20 10.7-33c0-11.4-2.3-20.8-7-28.2 -4.7-7.3-10.4-13.2-17.1-17.4 -6.7-4.3-13.8-7.3-21.1-9.2 -7.3-1.8-13.9-2.8-19.6-2.8h-1.2c-11.4 0-20.8 1.5-28.2 4.6s-13.6 7.3-18.7 12.9c-5.1 5.5-9.4 12.1-12.9 19.9s-7 16.1-10.7 25.1c-4.9 12.6-10.8 21.5-17.7 26.6s-13.9 8.1-20.8 8.9c-7.8 1.6-15.7 1-23.9-1.8 -8.2-3.3-14.7-8-19.6-14.1 -4.5-5.3-8-12.1-10.4-20.5 -2.4-8.4-1.6-18.7 2.4-30.9 2.4-7.8 6.7-18.9 12.9-33.4s15.4-28.7 27.8-42.5 28.5-25.9 48-36.1 44.1-15.1 73.4-14.7c19.6 0.4 38.9 4 57.8 10.7s36 16.6 51.1 29.7c15.1 13.1 27.3 29.1 36.7 48 9.4 19 14.1 40.7 14.1 65.2 0 18-2.4 33.9-7.3 47.7 -4.9 13.9-11.1 26.3-18.7 37.3s-15.7 20.6-24.5 28.8c-8.8 8.2-16.8 15.5-24.2 22 -4.1 3.7-8 7-11.6 10.1 -3.7 3.1-6.5 6-8.6 8.9 -7.3 9-13.6 19.5-18.7 31.5 -5.1 12-8.3 24.6-9.5 37.6 -1.2 12.6-6.4 23-15.6 30.9C294.8 416.5 284.1 420.5 271.8 420.5z" fill="rgba(235, 55, 52, 0.25)"/></svg>