<svg xmlns="http://www.w3.org/2000/svg" viewBox="0 0 451.7 451.7" width="50" height="50" ><style>.a{fill:#3F4448;}</style><path d="M446.3 367.4L262.9 41.7c-15.6-28.4-58.3-28.4-74 0L5.4 367.4c-15.6 28.4 4.3 64 37 64h365.5C442.1 430 462 395.8 446.3 367.4z" fill="#E24C4B"/><path d="M225.9 63l183.5 325.7H42.4L225.9 63 225.9 63z" fill="#FFF"/><path d="M196 212.4l11.4 75.4c1.4 8.5 8.5 15.6 18.5 15.6l0 0c8.5 0 17.1-7.1 18.5-15.6l11.4-75.4c2.8-18.5-11.4-34.1-29.9-34.1l0 0C207.4 178.2 194.6 193.9 196 212.4z" class="a"/><circle cx="225.9" cy="336.1" r="17.1" class="a"/></svg>